<?xml version="1.0" encoding="UTF-8"?>
<svg id="Camada_1" data-name="Camada 1" xmlns="http://www.w3.org/2000/svg" viewBox="0 0 349.18 404.06">
  <defs>
    <style>
      .cls-1 {
        fill: #fff;
      }
    </style>
  </defs>
  <g transform="rotate(90) translate(0 -349.18)">
  <path class="cls-1" d="M83.78,203.55c6.18-.73,12.18-2.4,17.55-5.59,5.49-3.26,10.3-7.58,14.81-12.06,10-9.94,18.63-21.17,28.68-31.06,4.83-4.75,10.38-8.65,15.95-12.48,5.79-3.97,11.67-7.8,17.39-11.87,10.75-7.65,20.86-16.32,27.53-27.87,5.59-9.67,9.13-20.39,11.49-31.27,2.62-12.01,3.8-24.3,4.22-36.58.12-3.42.17-6.85.17-10.27-3.26,2.61-6.41,5.41-9.41,8.41l-10.15,10.15-10.15-10.15c-43.83-43.83-115.13-43.83-158.96,0C11.69,54.15,0,82.38,0,112.4s11.69,58.25,32.92,79.48l10.46,10.46c13.42.98,26.97,2.78,40.4,1.21ZM85.96,138.85c-7.06-7.06-10.96-16.46-10.96-26.45s3.89-19.38,10.96-26.45c14.58-14.58,38.31-14.58,52.89,0l10.15,10.15-52.89,52.89-10.15-10.15Z"/>
  <path class="cls-1" d="M212.18,32.92l-10.15,10.15-.39-.39-53.03,53.03.39.39-52.89,52.89h0l-14.06,13.86c-16.37,14.74-42.96,34.13-57.22,19.99,0,0,7.05,8.53,17.86,18.79l26.91,26.91c7.03,7.03,16.57,10.98,26.52,10.98,9.95,0,19.48-3.95,26.52-10.98l104.71-104.71c.42-.39.84-.78,1.25-1.19.41-.41.81-.82,1.19-1.25l35.45-35.45c7.06-7.06,16.46-10.96,26.45-10.96,9.99,0,19.38,3.89,26.45,10.95,7.06,7.06,10.96,16.46,10.96,26.45s-3.89,19.38-10.96,26.45l-146.31,146.31c-14.64,14.64-14.64,38.39,0,53.03,14.64,14.64,38.39,14.64,53.03,0l146.31-146.31c21.23-21.23,32.92-49.46,32.92-79.48s-11.69-58.25-32.92-79.48C349.91,11.69,321.69,0,291.66,0c-30.02,0-58.25,11.69-79.48,32.92Z"/>
  </g>
</svg>